<mxfile host="www.draw.io" modified="2019-11-06T09:49:28.785Z" agent="Mozilla/5.0 (Windows NT 10.0; Win64; x64) AppleWebKit/537.36 (KHTML, like Gecko) Chrome/78.0.3904.87 Safari/537.36" etag="uAKfLV4BxLGktnWAv13P" version="12.2.0" type="github" pages="1">
  <diagram id="XRMvp0gP5T1t41EHmEZd" name="Page-1">
    <mxGraphModel dx="1173" dy="632" grid="1" gridSize="10" guides="1" tooltips="1" connect="1" arrows="1" fold="1" page="1" pageScale="1" pageWidth="1100" pageHeight="850" math="0" shadow="0">
      <root>
        <mxCell id="0"/>
        <mxCell id="1" parent="0"/>
        <mxCell id="Drg_2glCti45QWZeGqZ4-1" value="DUT" style="rounded=0;whiteSpace=wrap;html=1;" parent="1" vertex="1">
          <mxGeometry x="120" y="160" width="200" height="360" as="geometry"/>
        </mxCell>
        <mxCell id="GeXZnIrBg0flCTK5yJlo-1" value="TEST TOOL" style="rounded=0;whiteSpace=wrap;html=1;" vertex="1" parent="1">
          <mxGeometry x="440" y="160" width="200" height="360" as="geometry"/>
        </mxCell>
        <mxCell id="GeXZnIrBg0flCTK5yJlo-2" value="" style="endArrow=classic;html=1;entryX=0.001;entryY=0.114;entryDx=0;entryDy=0;entryPerimeter=0;" edge="1" parent="1" target="GeXZnIrBg0flCTK5yJlo-1">
          <mxGeometry width="50" height="50" relative="1" as="geometry">
            <mxPoint x="320" y="200" as="sourcePoint"/>
            <mxPoint x="435" y="201" as="targetPoint"/>
          </mxGeometry>
        </mxCell>
        <mxCell id="GeXZnIrBg0flCTK5yJlo-4" value="24V" style="text;html=1;resizable=0;points=[];align=center;verticalAlign=middle;labelBackgroundColor=#ffffff;" vertex="1" connectable="0" parent="GeXZnIrBg0flCTK5yJlo-2">
          <mxGeometry x="0.1745" y="2" relative="1" as="geometry">
            <mxPoint as="offset"/>
          </mxGeometry>
        </mxCell>
        <mxCell id="GeXZnIrBg0flCTK5yJlo-3" value="" style="endArrow=classic;html=1;entryX=0.001;entryY=0.114;entryDx=0;entryDy=0;entryPerimeter=0;" edge="1" parent="1">
          <mxGeometry width="50" height="50" relative="1" as="geometry">
            <mxPoint x="320" y="230" as="sourcePoint"/>
            <mxPoint x="440.20000000000005" y="231.03999999999996" as="targetPoint"/>
          </mxGeometry>
        </mxCell>
        <mxCell id="GeXZnIrBg0flCTK5yJlo-5" value="4V" style="text;html=1;resizable=0;points=[];align=center;verticalAlign=middle;labelBackgroundColor=#ffffff;" vertex="1" connectable="0" parent="GeXZnIrBg0flCTK5yJlo-3">
          <mxGeometry x="0.1748" relative="1" as="geometry">
            <mxPoint as="offset"/>
          </mxGeometry>
        </mxCell>
        <mxCell id="GeXZnIrBg0flCTK5yJlo-6" value="" style="endArrow=classic;html=1;entryX=0.001;entryY=0.114;entryDx=0;entryDy=0;entryPerimeter=0;" edge="1" parent="1">
          <mxGeometry width="50" height="50" relative="1" as="geometry">
            <mxPoint x="320" y="260" as="sourcePoint"/>
            <mxPoint x="440.20000000000005" y="261.03999999999996" as="targetPoint"/>
          </mxGeometry>
        </mxCell>
        <mxCell id="GeXZnIrBg0flCTK5yJlo-7" value="ZCD" style="text;html=1;resizable=0;points=[];align=center;verticalAlign=middle;labelBackgroundColor=#ffffff;" vertex="1" connectable="0" parent="GeXZnIrBg0flCTK5yJlo-6">
          <mxGeometry x="0.1748" relative="1" as="geometry">
            <mxPoint as="offset"/>
          </mxGeometry>
        </mxCell>
        <mxCell id="GeXZnIrBg0flCTK5yJlo-15" value="" style="endArrow=classic;html=1;entryX=0.001;entryY=0.114;entryDx=0;entryDy=0;entryPerimeter=0;" edge="1" parent="1">
          <mxGeometry width="50" height="50" relative="1" as="geometry">
            <mxPoint x="440.20000000000005" y="302.5400000000001" as="sourcePoint"/>
            <mxPoint x="320" y="301.5" as="targetPoint"/>
          </mxGeometry>
        </mxCell>
        <mxCell id="GeXZnIrBg0flCTK5yJlo-16" value="4x RL" style="text;html=1;resizable=0;points=[];align=center;verticalAlign=middle;labelBackgroundColor=#ffffff;" vertex="1" connectable="0" parent="GeXZnIrBg0flCTK5yJlo-15">
          <mxGeometry x="0.1745" y="2" relative="1" as="geometry">
            <mxPoint as="offset"/>
          </mxGeometry>
        </mxCell>
        <mxCell id="GeXZnIrBg0flCTK5yJlo-23" value="" style="edgeStyle=orthogonalEdgeStyle;rounded=0;orthogonalLoop=1;jettySize=auto;html=1;" edge="1" parent="1" source="GeXZnIrBg0flCTK5yJlo-22" target="Drg_2glCti45QWZeGqZ4-1">
          <mxGeometry relative="1" as="geometry"/>
        </mxCell>
        <mxCell id="GeXZnIrBg0flCTK5yJlo-22" value="220 ~AC" style="rounded=0;whiteSpace=wrap;html=1;" vertex="1" parent="1">
          <mxGeometry x="120" y="80" width="200" height="40" as="geometry"/>
        </mxCell>
        <mxCell id="GeXZnIrBg0flCTK5yJlo-27" value="AC_EN" style="endArrow=classic;html=1;entryX=1;entryY=0.5;entryDx=0;entryDy=0;" edge="1" parent="1" target="GeXZnIrBg0flCTK5yJlo-22">
          <mxGeometry width="50" height="50" relative="1" as="geometry">
            <mxPoint x="520" y="100" as="sourcePoint"/>
            <mxPoint x="470" y="70" as="targetPoint"/>
          </mxGeometry>
        </mxCell>
        <mxCell id="GeXZnIrBg0flCTK5yJlo-28" value="" style="endArrow=none;html=1;" edge="1" parent="1">
          <mxGeometry width="50" height="50" relative="1" as="geometry">
            <mxPoint x="520" y="160" as="sourcePoint"/>
            <mxPoint x="520" y="100" as="targetPoint"/>
          </mxGeometry>
        </mxCell>
        <mxCell id="GeXZnIrBg0flCTK5yJlo-30" value="" style="endArrow=classic;html=1;entryX=0.001;entryY=0.114;entryDx=0;entryDy=0;entryPerimeter=0;" edge="1" parent="1">
          <mxGeometry width="50" height="50" relative="1" as="geometry">
            <mxPoint x="760.2" y="231.03999999999996" as="sourcePoint"/>
            <mxPoint x="640" y="229.9999999999999" as="targetPoint"/>
          </mxGeometry>
        </mxCell>
        <mxCell id="GeXZnIrBg0flCTK5yJlo-31" value="UART" style="text;html=1;resizable=0;points=[];align=center;verticalAlign=middle;labelBackgroundColor=#ffffff;" vertex="1" connectable="0" parent="GeXZnIrBg0flCTK5yJlo-30">
          <mxGeometry x="0.1748" relative="1" as="geometry">
            <mxPoint as="offset"/>
          </mxGeometry>
        </mxCell>
        <mxCell id="GeXZnIrBg0flCTK5yJlo-32" value="" style="endArrow=classic;html=1;entryX=0.001;entryY=0.114;entryDx=0;entryDy=0;entryPerimeter=0;" edge="1" parent="1">
          <mxGeometry width="50" height="50" relative="1" as="geometry">
            <mxPoint x="640" y="200" as="sourcePoint"/>
            <mxPoint x="760.2" y="201.04000000000008" as="targetPoint"/>
          </mxGeometry>
        </mxCell>
        <mxCell id="GeXZnIrBg0flCTK5yJlo-33" value="UART" style="text;html=1;resizable=0;points=[];align=center;verticalAlign=middle;labelBackgroundColor=#ffffff;" vertex="1" connectable="0" parent="GeXZnIrBg0flCTK5yJlo-32">
          <mxGeometry x="0.1745" y="2" relative="1" as="geometry">
            <mxPoint as="offset"/>
          </mxGeometry>
        </mxCell>
        <mxCell id="GeXZnIrBg0flCTK5yJlo-34" value="" style="shape=mxgraph.signs.tech.computer;html=1;fillColor=#000000;strokeColor=none;verticalLabelPosition=bottom;verticalAlign=top;align=center;" vertex="1" parent="1">
          <mxGeometry x="760" y="160" width="190" height="170" as="geometry"/>
        </mxCell>
      </root>
    </mxGraphModel>
  </diagram>
</mxfile>
